<svg xmlns="http://www.w3.org/2000/svg" version="1.1" xmlns:xlink="http://www.w3.org/1999/xlink" xmlns:svgjs="http://svgjs.dev/svgjs" width="2000" height="1630" viewBox="0 0 2000 1630"><g transform="matrix(1,0,0,1,1.2549141844324367,-2.306276595744407)"><svg viewBox="0 0 173 141" data-background-color="#ffffff" preserveAspectRatio="xMidYMid meet" height="1630" width="2000" xmlns="http://www.w3.org/2000/svg" xmlns:xlink="http://www.w3.org/1999/xlink"><g id="tight-bounds" transform="matrix(1,0,0,1,-0.10855007695340646,0.19949999999997203)"><svg viewBox="0 0 173.2171001539068 140.60052000000002" height="140.60052000000002" width="173.2171001539068"><g><svg viewBox="0 0 173.2171001539068 140.60052000000002" height="140.60052000000002" width="173.2171001539068"><g><svg viewBox="0 0 173.2171001539068 140.60052000000002" height="140.60052000000002" width="173.2171001539068"><g><path d="M0 140.601v-140.601h173.217v140.601z" fill="#000000" stroke="transparent" stroke-width="0" rx="0%" data-fill-palette-color="tertiary"></path><path d="M3.283 137.317v-134.034h166.651v134.034z" fill="#ffffff" stroke="transparent" stroke-width="0" rx="0%" data-fill-palette-color="quaternary"></path><path d="M9.85 130.751v-120.901h153.517v120.901z" fill="#000000" stroke="transparent" stroke-width="0" data-fill-palette-color="tertiary"></path></g><g transform="matrix(1,0,0,1,19.699740000000013,19.69974)" id="textblocktransform"><svg viewBox="0 0 133.8176201539068 101.20104000000003" height="101.20104000000003" width="133.8176201539068" id="textblock"><g><svg viewBox="0 0 133.8176201539068 101.20104000000003" height="101.20104000000003" width="133.8176201539068"><g transform="matrix(1,0,0,1,0,0)"><svg width="133.8176201539068" viewBox="-0.42 -37.94 62.68166666666667 47.442604166656" height="101.20104000000003" data-palette-color="#ffffff"><path d="M4.2-3.96L4.05-3.49Q6.45-2.05 8.19-3.3 9.94-4.54 11.58-9.05 13.23-13.55 13.71-16.1 14.18-18.65 14.11-19.56 14.04-20.46 13.22-20.87 12.4-21.29 10.5-19.14 8.59-16.99 7.21-13.45 5.83-9.91 4.2-3.96L4.2-3.96ZM6.45 0.2L6.45 0.2Q4.79 0.2 3.25-0.76L3.25-0.76Q2.83 0 1.9 0L1.9 0 1.05 0Q-0.71 0-0.42-1.61L-0.42-1.61 8.74-36.84Q9.03-37.94 10.25-37.94L10.25-37.94 11.4-37.94Q12.79-37.94 12.5-36.79L12.5-36.79 8.15-19.75 8.89-21Q9.94-22.75 11.29-24 12.65-25.24 13.5-25.24L13.5-25.24 13.6-25.24Q13.99-25.24 14.84-24.67 15.7-24.1 16.52-23.07 17.33-22.05 17.64-20.92 17.94-19.8 17.49-16.82 17.04-13.84 15.14-8.64 13.23-3.44 11.29-1.62 9.35 0.2 6.45 0.2ZM30.71-36.79L30.71-36.79 21.6-1.1Q21.31 0 20.09 0L20.09 0 19.26 0Q17.4 0 17.8-1.61L17.8-1.61 26.95-36.84Q27.24-37.94 28.44-37.94L28.44-37.94 29.59-37.94Q31-37.94 30.71-36.79ZM27.75-7.25L27.75-7.25Q27.97-13.94 31.1-19.92 34.22-25.9 39.06-25.81L39.06-25.81Q41.57-25.66 42.96-23.29L42.96-23.29Q44.01-21.66 43.82-17.75L43.82-17.75Q43.62-10.35 39.77-4.05L39.77-4.05Q37.1 0.56 32.61 0.39L32.61 0.39Q31.03 0.34 29.66-1L29.66-1Q27.61-2.95 27.75-7.25ZM36.27-5.25L36.27-5.25Q39.67-10.6 39.86-17.21L39.86-17.21Q39.91-20.14 39.56-21.14 39.2-22.14 38.08-22.17 36.96-22.19 36.03-21.12 35.1-20.04 34.22-18.14L34.22-18.14Q32-13.7 31.81-7.74L31.81-7.74Q31.71-3.25 33.37-3.1L33.37-3.1Q34.81-3.05 36.27-5.25ZM55.27-25.29L55.27-25.29Q56.93-25.29 58.46-24.34L58.46-24.34Q58.76-25.34 59.51-25.34L59.51-25.34 61.22-25.39Q62.47-25.44 62.22-24.1L62.22-24.1Q61.08-19.51 54.88 2.49L54.88 2.49Q53.58 7.15 50.92 8.59L50.92 8.59Q49.53 9.45 48.75 9.5 47.97 9.55 46.38 8.64L46.38 8.64 41.28 5.76Q40.08 5.15 40.86 3.96L40.86 3.96 41.62 2.91Q42.42 2 43.28 2.49L43.28 2.49 48.82 5.91Q49.97 6.4 50.48 4.54L50.48 4.54 52.87-4.2Q51.77-2.34 50.42-1.1 49.06 0.15 48.21 0.15L48.21 0.15 48.11 0.15Q47.72 0.15 46.87-0.43 46.01-1 45.22-1.98 44.43-2.95 44.1-4.05 43.77-5.15 44.22-8.15 44.67-11.16 46.49-16.22 48.31-21.29 50.29-23.29 52.26-25.29 55.27-25.29ZM57.51-21.14L57.66-21.61Q55.17-23 53.5-21.8 51.82-20.61 50.15-16.08 48.48-11.55 48-9 47.53-6.45 47.6-5.54 47.67-4.64 48.49-4.22 49.31-3.81 51.24-6.01 53.17-8.2 54.52-11.71 55.88-15.21 57.51-21.14L57.51-21.14Z" opacity="1" transform="matrix(1,0,0,1,0,0)" fill="#ffffff" class="wordmark-text-0" data-fill-palette-color="quaternary" id="text-0"></path></svg></g></svg></g></svg></g></svg></g><g></g></svg></g><defs></defs></svg><rect width="173.2171001539068" height="140.60052000000002" fill="none" stroke="none" visibility="hidden"></rect></g></svg></g></svg>